<?xml version="1.0" standalone="no"?>
<!DOCTYPE svg PUBLIC "-//W3C//DTD SVG 20010904//EN"
 "http://www.w3.org/TR/2001/REC-SVG-20010904/DTD/svg10.dtd">
<svg version="1.0" xmlns="http://www.w3.org/2000/svg"
 width="16.000000pt" height="16.000000pt" viewBox="0 0 16.000000 16.000000"
 preserveAspectRatio="xMidYMid meet">
<metadata>
Created by potrace 1.11, written by Peter Selinger 2001-2013
</metadata>
<g transform="translate(0.000000,16.000000) scale(0.005128,-0.005128)"
fill="#000000" stroke="none">
<path d="M2558 3054 c-2 -1 -69 -6 -148 -10 -80 -3 -182 -9 -227 -13 -46 -4
-83 -4 -83 0 0 8 -15 6 -40 -4 -8 -3 -73 -8 -144 -11 -71 -3 -131 -8 -134 -11
-3 -3 -22 -5 -43 -5 -38 0 -88 -17 -100 -33 -4 -5 -18 -10 -32 -10 -14 -1 -23
-4 -21 -7 9 -8 -357 -181 -368 -174 -6 4 -8 2 -5 -3 8 -13 -20 -26 -35 -16 -6
3 -8 2 -5 -4 3 -5 -64 -43 -150 -83 -180 -86 -209 -105 -192 -126 8 -10 22
-13 41 -9 17 4 28 2 28 -4 0 -6 7 -11 15 -11 11 0 13 -7 9 -29 -4 -16 -1 -32
5 -35 6 -4 9 -12 6 -17 -4 -5 2 -9 12 -9 29 0 -16 -27 -58 -35 l-35 -7 -12 52
c-19 84 -107 182 -142 160 -14 -9 -82 -6 -98 4 -6 3 -13 0 -15 -6 -4 -10 -6
-10 -6 0 -1 9 -6 10 -20 2 -13 -7 -22 -7 -26 0 -3 5 -11 10 -16 10 -6 0 -8 -4
-5 -8 3 -5 -8 -6 -25 -4 -16 2 -32 8 -34 13 -8 12 -65 -11 -105 -42 -93 -72
-104 -192 -32 -341 44 -92 109 -171 178 -219 24 -16 44 -37 44 -46 0 -8 -16
-37 -35 -62 -19 -26 -39 -67 -46 -92 -10 -41 -8 -54 30 -172 35 -110 42 -145
47 -245 8 -184 44 -267 137 -313 57 -29 86 -66 86 -109 0 -64 -16 -121 -42
-148 -35 -37 -52 -81 -72 -187 -19 -105 -29 -123 -89 -164 -44 -31 -58 -54
-61 -100 0 -14 -6 -26 -13 -29 -21 -7 -13 -19 23 -36 23 -11 33 -22 28 -29 -4
-7 0 -6 10 2 13 10 17 10 17 1 0 -7 6 -10 14 -7 17 7 59 -27 48 -39 -4 -4 2
-2 12 6 18 14 19 13 13 -5 -7 -20 -7 -20 8 -1 15 20 15 20 16 0 1 -10 1 -25 0
-31 -1 -7 3 -13 8 -13 5 0 8 9 6 19 -2 11 3 22 10 25 9 3 12 -1 10 -15 -2 -11
0 -17 5 -14 5 3 12 0 16 -6 5 -9 11 -6 22 7 14 18 14 18 9 -3 -3 -15 -1 -20 9
-16 8 3 11 10 7 17 -3 6 2 4 13 -5 10 -9 27 -15 36 -14 15 3 16 0 8 -16 -10
-18 -6 -23 13 -20 4 0 7 -4 7 -11 0 -9 3 -9 12 0 7 7 17 12 22 12 6 0 4 -5 -4
-10 -10 -6 -11 -10 -2 -10 6 0 12 -7 12 -16 0 -8 5 -12 10 -9 6 4 8 11 5 16
-3 5 1 6 10 2 13 -5 14 -7 3 -14 -9 -6 -10 -9 -1 -9 8 0 10 -7 6 -17 -7 -17
-6 -17 11 -1 14 15 20 15 36 5 11 -6 20 -16 20 -21 0 -5 -9 -1 -20 9 -11 10
-20 14 -20 9 0 -15 38 -35 45 -24 3 6 11 10 16 10 6 0 7 -5 4 -10 -3 -6 0 -10
7 -11 7 -1 22 -2 33 -3 11 0 23 4 27 9 4 6 8 1 8 -10 0 -17 2 -17 10 -5 9 13
10 13 10 0 0 -13 1 -13 10 0 9 13 10 13 10 0 0 -13 1 -13 10 0 8 12 10 12 10
-5 0 -15 2 -17 9 -6 6 9 10 10 16 2 5 -9 10 -9 21 0 11 9 14 8 15 -7 0 -18 1
-18 9 1 5 11 9 14 9 8 1 -7 6 -13 12 -13 5 0 8 4 4 9 -8 13 33 5 51 -10 9 -7
14 -8 14 -1 0 11 25 10 36 -1 4 -4 14 -1 22 6 12 10 16 9 20 -1 3 -10 7 -10
20 0 13 11 14 11 8 -1 -5 -8 3 -6 20 5 15 11 25 13 21 7 -5 -7 -4 -13 1 -13 6
0 13 8 17 18 7 16 8 15 15 -3 5 -11 9 -14 9 -7 1 7 5 11 10 8 5 -3 12 1 15 10
5 14 9 14 23 3 13 -11 17 -11 21 -1 3 10 7 10 20 0 9 -8 13 -8 9 -2 -4 7 0 15
9 18 9 4 13 2 8 -5 -3 -6 6 -3 22 7 29 18 29 18 14 -1 -14 -18 -14 -19 2 -7
10 8 23 10 30 6 9 -5 8 -2 -1 10 -13 16 -13 17 0 14 8 -1 30 8 49 22 40 29 80
39 61 16 -9 -10 -9 -16 -1 -21 6 -4 14 -4 17 -1 4 3 1 6 -5 6 -7 0 -3 14 9 35
20 33 39 39 39 12 0 -7 -4 -6 -11 3 -7 10 -9 11 -7 2 5 -19 23 -11 21 9 -1 9
4 16 13 16 9 0 13 -7 9 -21 -3 -12 -2 -15 1 -8 3 6 10 10 15 7 5 -4 6 0 3 8
-3 8 2 20 11 27 14 12 18 11 25 -1 7 -10 9 -8 7 8 -1 21 -3 22 -24 8 -18 -12
-23 -12 -23 -3 -1 8 -7 5 -15 -6 -8 -11 -15 -17 -15 -13 0 4 -12 2 -26 -3 -16
-7 -23 -7 -19 0 3 6 12 10 19 10 16 0 66 39 51 40 -6 0 -16 -5 -23 -12 -9 -9
-15 -9 -25 1 -10 10 -9 11 6 6 10 -4 17 -2 17 4 0 6 -8 11 -18 11 -27 0 -33
10 -21 32 7 14 7 23 -2 34 -15 19 -27 18 -31 -4 -3 -14 -5 -13 -10 6 -3 12 -2
20 2 17 5 -3 12 -1 15 5 4 6 14 1 25 -12 14 -17 19 -19 20 -8 0 8 9 0 21 -19
11 -18 23 -30 27 -26 4 4 1 10 -5 12 -23 8 -14 25 10 19 12 -3 16 -3 9 0 -6 3
-9 10 -6 16 4 6 -2 5 -15 -1 -26 -14 -29 3 -3 18 9 6 12 11 6 11 -6 0 -14 -3
-18 -7 -12 -12 -35 -12 -45 1 -6 7 -24 11 -40 8 -22 -3 -28 -8 -24 -21 3 -9
-1 -7 -11 6 -10 13 -23 20 -31 17 -8 -4 -15 -2 -15 4 0 11 18 11 38 -1 7 -5
12 -4 12 2 0 6 -4 12 -10 12 -5 1 -16 2 -22 3 -21 3 -37 -14 -31 -32 3 -9 3
-14 -1 -11 -11 10 -16 50 -5 44 5 -4 9 -1 9 5 0 7 -8 9 -21 5 -14 -5 -19 -3
-15 3 3 6 2 13 -3 16 -11 7 -9 -13 4 -34 5 -8 -3 -5 -18 7 -27 21 -42 22 -79
8 -12 -5 -20 -2 -24 9 -6 15 -8 15 -20 -1 -13 -17 -14 -17 -7 2 6 20 6 20 -15
1 -12 -11 -25 -16 -29 -13 -3 4 -1 7 6 7 7 0 9 5 5 12 -4 7 -3 8 4 4 7 -4 12
-2 12 4 0 7 -7 10 -15 7 -8 -4 -17 -2 -20 3 -7 12 -40 5 -40 -8 0 -16 -10 -15
-48 4 l-32 17 20 -24 20 -24 -20 15 c-11 8 -23 20 -27 25 -5 6 -8 4 -8 -5 0
-13 -1 -13 -10 0 -8 12 -10 12 -11 -5 l0 -20 -8 20 c-5 11 -6 25 -3 30 3 6 -3
3 -14 -5 -30 -22 -30 -24 -9 -16 20 7 20 7 0 -12 -20 -19 -20 -18 -25 207 l-5
226 -39 75 c-21 41 -55 102 -76 136 -33 55 -37 70 -43 150 l-5 89 95 23 96 22
59 -56 c58 -55 60 -56 107 -52 30 3 60 14 77 27 40 32 94 110 94 137 0 25 5
27 140 58 36 8 123 29 193 46 70 17 133 28 138 24 6 -4 14 -2 18 3 3 6 123 38
266 73 143 34 266 68 274 75 11 11 10 28 -9 112 -36 158 -30 148 -83 151 -26
2 -47 7 -47 13 0 5 -23 9 -51 9 -31 0 -48 4 -44 10 3 6 -3 10 -14 10 -25 0
-28 27 -4 32 16 3 16 5 -4 25 -12 12 -18 25 -15 28 4 4 -4 4 -18 1 -24 -7 -24
-6 -6 8 11 9 24 16 30 16 6 0 5 5 -2 12 -9 9 -3 16 30 28 47 17 61 52 23 58
-18 2 -24 20 -46 127 l-26 124 21 20 c20 20 20 23 4 96 l-15 76 31 13 c17 7
127 46 243 87 134 46 215 80 218 89 4 13 -24 166 -41 223 -5 16 -18 17 -124
16 -65 0 -120 -3 -122 -5z m-1103 -2646 c3 -3 -3 -11 -12 -19 -10 -7 -15 -9
-11 -5 4 5 3 15 -3 22 -7 9 -6 12 5 10 9 -1 18 -5 21 -8z m163 -31 c6 -5 12
-14 12 -20 0 -7 -5 -4 -11 7 -8 13 -13 15 -19 6 -5 -9 -9 -8 -13 3 -6 16 9 17
31 4z m176 -95 c3 -5 -1 -9 -9 -9 -8 0 -12 4 -9 9 3 4 7 8 9 8 2 0 6 -4 9 -8z
m7 -55 c-10 -9 -11 -8 -5 6 3 10 9 15 12 12 3 -3 0 -11 -7 -18z m-936 -66 c-9
-8 -36 -10 -30 -2 2 4 11 8 20 8 8 0 13 -3 10 -6z m945 1 c0 -4 -10 -9 -22 -9
-18 -2 -20 0 -8 7 18 12 30 13 30 2z"/>
<path d="M676 2608 c3 -5 10 -6 15 -3 13 9 11 12 -6 12 -8 0 -12 -4 -9 -9z"/>
<path d="M1380 433 c0 -6 8 -17 18 -24 16 -13 16 -13 2 6 -8 11 -16 22 -17 24
-2 2 -3 0 -3 -6z"/>
<path d="M1543 405 c0 -7 6 -11 14 -8 7 3 13 6 13 8 0 2 -6 5 -13 8 -8 3 -14
-1 -14 -8z"/>
<path d="M1833 365 c0 -8 4 -15 9 -15 4 0 8 4 8 9 0 6 -4 12 -8 15 -5 3 -9 -1
-9 -9z"/>
<path d="M1832 286 c-10 -22 -8 -24 20 -30 16 -3 34 -4 39 -1 4 3 6 -5 4 -17
-4 -20 -3 -21 8 -7 7 9 17 18 22 20 6 2 9 9 9 16 -1 7 9 10 26 8 18 -2 27 1
27 11 0 10 -4 11 -13 3 -9 -7 -19 -7 -31 0 -11 5 -25 6 -32 2 -10 -6 -9 -10 3
-14 9 -4 16 -12 16 -18 0 -8 -4 -8 -15 1 -8 6 -18 9 -24 6 -5 -4 -18 5 -29 18
l-19 25 -11 -23z m29 -13 c13 -16 12 -17 -3 -4 -17 13 -22 21 -14 21 2 0 10
-8 17 -17z"/>
<path d="M576 262 c-3 -5 1 -9 9 -9 8 0 12 4 9 9 -3 4 -7 8 -9 8 -2 0 -6 -4
-9 -8z"/>
<path d="M1951 244 c0 -11 3 -14 6 -6 3 7 2 16 -1 19 -3 4 -6 -2 -5 -13z"/>
<path d="M1979 258 c-6 -20 -6 -39 0 -42 4 -3 7 6 7 20 0 20 -4 32 -7 22z"/>
<path d="M777 183 c-10 -10 -8 -33 3 -33 5 0 6 8 3 18 -6 14 -4 15 9 4 13 -11
18 -11 24 0 4 7 4 10 -1 6 -4 -4 -13 -3 -20 2 -7 5 -15 7 -18 3z"/>
<path d="M1821 133 c-1 -17 16 -25 25 -12 4 7 3 9 -4 5 -5 -3 -13 0 -15 6 -4
9 -6 10 -6 1z"/>
<path d="M1751 116 c-9 -11 -9 -16 0 -22 7 -4 9 -3 5 4 -3 5 0 12 6 15 7 2 10
7 7 11 -3 4 -12 0 -18 -8z"/>
<path d="M1715 89 c-4 -6 -5 -12 -2 -15 2 -3 7 2 10 11 7 17 1 20 -8 4z"/>
</g>
</svg>
